<svg width="14" height="14" viewBox="0 0 14 14" fill="none" xmlns="http://www.w3.org/2000/svg">
<path d="M5.6875 6.25C5.37684 6.25 5.125 6.50185 5.125 6.8125C5.125 7.12315 5.37684 7.375 5.6875 7.375H8.3125C8.62315 7.375 8.875 7.12315 8.875 6.8125C8.875 6.50185 8.62315 6.25 8.3125 6.25H5.6875ZM0.25 1.9375C0.25 1.00552 1.00552 0.25 1.9375 0.25H12.0625C12.9944 0.25 13.75 1.00552 13.75 1.9375V3.0625C13.75 3.64757 13.4522 4.16311 13 4.46583V10.9375C13 12.4908 11.7408 13.75 10.1875 13.75H3.8125C2.2592 13.75 1 12.4908 1 10.9375V4.46583C0.547758 4.16311 0.25 3.64757 0.25 3.0625V1.9375ZM2.125 4.75V10.9375C2.125 11.8694 2.88052 12.625 3.8125 12.625H10.1875C11.1194 12.625 11.875 11.8694 11.875 10.9375V4.75H2.125ZM1.9375 1.375C1.62684 1.375 1.375 1.62684 1.375 1.9375V3.0625C1.375 3.37316 1.62684 3.625 1.9375 3.625H12.0625C12.3731 3.625 12.625 3.37316 12.625 3.0625V1.9375C12.625 1.62684 12.3731 1.375 12.0625 1.375H1.9375Z" fill="#20335B"/>
</svg>
