<svg width="34" height="34" viewBox="0 0 34 34" fill="none" xmlns="http://www.w3.org/2000/svg">
<path d="M9.99604 3.4262L11.6493 2.92788C13.5228 2.36314 15.5246 3.27579 16.3269 5.06055L17.6043 7.90199C18.2881 9.42325 17.9277 11.2111 16.708 12.3486L14.5911 14.3227C14.5291 14.3804 14.4899 14.4583 14.4806 14.5424C14.4178 15.105 14.7992 16.2007 15.6778 17.7226C16.3168 18.8294 16.8951 19.6055 17.3874 20.0421C17.7304 20.3462 17.9192 20.412 17.9997 20.388L20.8476 19.5174C22.4422 19.0299 24.1703 19.6111 25.1459 20.9633L26.9603 23.4779C28.1022 25.0606 27.897 27.2441 26.4799 28.5861L25.2241 29.7753C23.8692 31.0585 21.9403 31.5366 20.143 31.035C16.2413 29.946 12.7432 26.6534 9.60966 21.2261C6.47182 15.7912 5.3708 11.1099 6.38577 7.18319C6.85025 5.38617 8.21893 3.96187 9.99604 3.4262ZM10.6093 5.46078C9.54305 5.78218 8.72184 6.63677 8.44315 7.71498C7.5894 11.0179 8.56528 15.1672 11.45 20.1636C14.3308 25.1533 17.4318 28.072 20.7143 28.9882C21.7927 29.2892 22.95 29.0024 23.763 28.2324L25.0186 27.0433C25.6627 26.4332 25.7561 25.4407 25.237 24.7213L23.4227 22.2068C22.9791 21.5922 22.1937 21.3279 21.4688 21.5496L18.6138 22.4224C16.9567 22.9164 15.4527 21.5826 13.8375 18.7851C12.7491 16.8999 12.2418 15.4426 12.3687 14.3066C12.4344 13.718 12.7087 13.1724 13.1418 12.7685L15.2587 10.7945C15.8132 10.2774 15.977 9.46477 15.6662 8.7733L14.3888 5.93186C14.0241 5.12061 13.1142 4.70575 12.2626 4.96245L10.6093 5.46078Z" fill="#3683FC"/>
</svg>
