<svg width="14" height="14" viewBox="0 0 14 14" fill="none" xmlns="http://www.w3.org/2000/svg">
<path d="M7.00026 1.16602C10.2224 1.16602 12.8345 3.7781 12.8345 7.00027C12.8345 10.2224 10.2224 12.8345 7.00026 12.8345C3.77809 12.8345 1.16602 10.2224 1.16602 7.00027C1.16602 3.7781 3.77809 1.16602 7.00026 1.16602ZM7.00026 2.04102C4.26134 2.04102 2.04102 4.26135 2.04102 7.00027C2.04102 9.7392 4.26134 11.9595 7.00026 11.9595C9.73918 11.9595 11.9595 9.7392 11.9595 7.00027C11.9595 4.26135 9.73918 2.04102 7.00026 2.04102ZM6.9981 6.12469C7.21959 6.12457 7.40276 6.28901 7.43187 6.50251L7.43589 6.5619L7.43799 9.77116C7.43817 10.0128 7.2424 10.2088 7.00078 10.209C6.77929 10.2091 6.59613 10.0446 6.56702 9.83113L6.56299 9.77175L6.56089 6.56248C6.56078 6.32086 6.75648 6.12486 6.9981 6.12469ZM7.00049 4.08433C7.32226 4.08433 7.58307 4.34515 7.58307 4.66688C7.58307 4.98862 7.32226 5.24944 7.00049 5.24944C6.67878 5.24944 6.41798 4.98862 6.41798 4.66688C6.41798 4.34515 6.67878 4.08433 7.00049 4.08433Z" fill="#20335B"/>
</svg>
