<svg width="18" height="18" viewBox="0 0 18 18" fill="none" xmlns="http://www.w3.org/2000/svg">
<path d="M13.1263 9.00023C15.4044 9.00023 17.2513 10.847 17.2513 13.1252C17.2513 15.4034 15.4044 17.2502 13.1263 17.2502C10.8481 17.2502 9.00127 15.4034 9.00127 13.1252C9.00127 10.847 10.8481 9.00023 13.1263 9.00023ZM9.01792 10.4997C8.7954 10.8472 8.61577 11.2247 8.48647 11.6249L3.19056 11.6252C2.88037 11.6252 2.62891 11.8766 2.62891 12.1868V12.62C2.62891 13.0218 2.77224 13.4104 3.03313 13.7159C3.97311 14.8166 5.44752 15.376 7.50127 15.376C7.94857 15.376 8.3685 15.3494 8.76142 15.2966C8.94532 15.6677 9.17595 16.0117 9.44505 16.3214C8.84842 16.4415 8.19975 16.501 7.50127 16.501C5.14185 16.501 3.35234 15.8222 2.17762 14.4464C1.74279 13.9373 1.50391 13.2896 1.50391 12.62V12.1868C1.50391 11.2553 2.25904 10.5002 3.19056 10.5002L9.01792 10.4997ZM13.1263 10.5002L13.0588 10.5062C12.9058 10.534 12.7851 10.6547 12.7573 10.8078L12.7513 10.8752L12.7505 12.7502H10.8792L10.8118 12.7562C10.6587 12.7841 10.538 12.9047 10.5102 13.0578L10.5042 13.1252L10.5102 13.1926C10.538 13.3457 10.6587 13.4664 10.8118 13.4942L10.8792 13.5002H12.7505L12.7513 15.3752L12.7573 15.4426C12.7851 15.5957 12.9058 15.7163 13.0588 15.7442L13.1263 15.7502L13.1936 15.7442C13.3467 15.7163 13.4675 15.5957 13.4952 15.4426L13.5013 15.3752L13.5005 13.5002H15.3792L15.4466 13.4942C15.5996 13.4664 15.7204 13.3457 15.7481 13.1926L15.7542 13.1252L15.7481 13.0578C15.7204 12.9047 15.5996 12.7841 15.4466 12.7562L15.3792 12.7502H13.5005L13.5013 10.8752L13.4952 10.8078C13.4675 10.6547 13.3467 10.534 13.1936 10.5062L13.1263 10.5002ZM7.50127 1.50366C9.57232 1.50366 11.2513 3.1826 11.2513 5.25366C11.2513 7.32474 9.57232 9.00368 7.50127 9.00368C5.43018 9.00368 3.75124 7.32474 3.75124 5.25366C3.75124 3.1826 5.43018 1.50366 7.50127 1.50366ZM7.50127 2.62866C6.0515 2.62866 4.87624 3.80392 4.87624 5.25366C4.87624 6.70341 6.0515 7.87868 7.50127 7.87868C8.95102 7.87868 10.1263 6.70341 10.1263 5.25366C10.1263 3.80392 8.95102 2.62866 7.50127 2.62866Z" fill="#20335B"/>
</svg>
