<svg width="18" height="18" viewBox="0 0 18 18" fill="none" xmlns="http://www.w3.org/2000/svg">
<path d="M7.94333 1.88475C8.62102 1.61003 9.37898 1.61003 10.0567 1.88475L15.6806 4.16473C16.1759 4.36553 16.5 4.84662 16.5 5.38107V12.6206C16.5 13.1551 16.1759 13.6361 15.6806 13.837L10.0567 16.1169C9.37898 16.3916 8.62102 16.3916 7.94333 16.1169L2.31939 13.837C1.82408 13.6361 1.5 13.1551 1.5 12.6206V5.38107C1.5 4.84662 1.82408 4.36553 2.31939 4.16473L7.94333 1.88475ZM9.63398 2.92734C9.2274 2.7625 8.7726 2.7625 8.36602 2.92734L6.93073 3.5092L12.5758 5.70453L14.5778 4.93156L9.63398 2.92734ZM11.0183 6.3059L5.41104 4.12529L3.44272 4.92326L9.00097 7.08481L11.0183 6.3059ZM2.625 12.6206C2.625 12.697 2.6713 12.7657 2.74205 12.7944L8.36602 15.0743C8.38973 15.084 8.41373 15.0931 8.43773 15.1015V8.07285L2.625 5.81234V12.6206ZM9.63398 15.0743L15.2579 12.7944C15.3287 12.7657 15.375 12.697 15.375 12.6206V5.82969L9.56273 8.07382V15.1014C9.58665 15.0929 9.61042 15.0839 9.63398 15.0743Z" fill="white"/>
</svg>
